<svg id="visual" viewBox="0 0 960 200" width="960" height="200" xmlns="http://www.w3.org/2000/svg" xmlns:xlink="http://www.w3.org/1999/xlink" version="1.1"><rect x="0" y="0" width="960" height="200" fill="#0F0F10"></rect><path d="M0 88L22.8 80.8C45.7 73.7 91.3 59.3 137 54C182.7 48.7 228.3 52.3 274 59C319.7 65.7 365.3 75.3 411.2 73.7C457 72 503 59 548.8 51C594.7 43 640.3 40 686 44.2C731.7 48.3 777.3 59.7 823 59.2C868.7 58.7 914.3 46.3 937.2 40.2L960 34L960 201L937.2 201C914.3 201 868.7 201 823 201C777.3 201 731.7 201 686 201C640.3 201 594.7 201 548.8 201C503 201 457 201 411.2 201C365.3 201 319.7 201 274 201C228.3 201 182.7 201 137 201C91.3 201 45.7 201 22.8 201L0 201Z" fill="#fa6969"></path><path d="M0 101L22.8 98.2C45.7 95.3 91.3 89.7 137 84C182.7 78.3 228.3 72.7 274 73.2C319.7 73.7 365.3 80.3 411.2 78.5C457 76.7 503 66.3 548.8 63.7C594.7 61 640.3 66 686 72C731.7 78 777.3 85 823 87.3C868.7 89.7 914.3 87.3 937.2 86.2L960 85L960 201L937.2 201C914.3 201 868.7 201 823 201C777.3 201 731.7 201 686 201C640.3 201 594.7 201 548.8 201C503 201 457 201 411.2 201C365.3 201 319.7 201 274 201C228.3 201 182.7 201 137 201C91.3 201 45.7 201 22.8 201L0 201Z" fill="#f66260"></path><path d="M0 79L22.8 78.8C45.7 78.7 91.3 78.3 137 80.2C182.7 82 228.3 86 274 85.8C319.7 85.7 365.3 81.3 411.2 80.5C457 79.7 503 82.3 548.8 85.8C594.7 89.3 640.3 93.7 686 97C731.7 100.3 777.3 102.7 823 105C868.7 107.3 914.3 109.7 937.2 110.8L960 112L960 201L937.2 201C914.3 201 868.7 201 823 201C777.3 201 731.7 201 686 201C640.3 201 594.7 201 548.8 201C503 201 457 201 411.2 201C365.3 201 319.7 201 274 201C228.3 201 182.7 201 137 201C91.3 201 45.7 201 22.8 201L0 201Z" fill="#f15b56"></path><path d="M0 109L22.8 110.5C45.7 112 91.3 115 137 118.2C182.7 121.3 228.3 124.7 274 121.2C319.7 117.7 365.3 107.3 411.2 106.2C457 105 503 113 548.8 118.3C594.7 123.7 640.3 126.3 686 129C731.7 131.7 777.3 134.3 823 129.5C868.7 124.7 914.3 112.3 937.2 106.2L960 100L960 201L937.2 201C914.3 201 868.7 201 823 201C777.3 201 731.7 201 686 201C640.3 201 594.7 201 548.8 201C503 201 457 201 411.2 201C365.3 201 319.7 201 274 201C228.3 201 182.7 201 137 201C91.3 201 45.7 201 22.8 201L0 201Z" fill="#ec544d"></path><path d="M0 129L22.8 133.2C45.7 137.3 91.3 145.7 137 146.2C182.7 146.7 228.3 139.3 274 134.7C319.7 130 365.3 128 411.2 128.3C457 128.7 503 131.3 548.8 131.5C594.7 131.7 640.3 129.3 686 132.5C731.7 135.7 777.3 144.3 823 145.8C868.7 147.3 914.3 141.7 937.2 138.8L960 136L960 201L937.2 201C914.3 201 868.7 201 823 201C777.3 201 731.7 201 686 201C640.3 201 594.7 201 548.8 201C503 201 457 201 411.2 201C365.3 201 319.7 201 274 201C228.3 201 182.7 201 137 201C91.3 201 45.7 201 22.8 201L0 201Z" fill="#e74d44"></path><path d="M0 163L22.8 160.5C45.7 158 91.3 153 137 150.2C182.7 147.3 228.3 146.7 274 147.7C319.7 148.7 365.3 151.3 411.2 153.5C457 155.7 503 157.3 548.8 155.8C594.7 154.3 640.3 149.7 686 151.3C731.7 153 777.3 161 823 162.2C868.7 163.3 914.3 157.7 937.2 154.8L960 152L960 201L937.2 201C914.3 201 868.7 201 823 201C777.3 201 731.7 201 686 201C640.3 201 594.7 201 548.8 201C503 201 457 201 411.2 201C365.3 201 319.7 201 274 201C228.3 201 182.7 201 137 201C91.3 201 45.7 201 22.8 201L0 201Z" fill="#e2463a"></path><path d="M0 185L22.8 183.7C45.7 182.3 91.3 179.7 137 177.3C182.7 175 228.3 173 274 173.2C319.7 173.3 365.3 175.7 411.2 176.7C457 177.7 503 177.3 548.8 176.7C594.7 176 640.3 175 686 174.2C731.7 173.3 777.3 172.7 823 173.3C868.7 174 914.3 176 937.2 177L960 178L960 201L937.2 201C914.3 201 868.7 201 823 201C777.3 201 731.7 201 686 201C640.3 201 594.7 201 548.8 201C503 201 457 201 411.2 201C365.3 201 319.7 201 274 201C228.3 201 182.7 201 137 201C91.3 201 45.7 201 22.8 201L0 201Z" fill="#dd3f31"></path></svg>